<svg xmlns="http://www.w3.org/2000/svg" viewBox="0 0 45.05 50.6"><title>git</title><g id="Capa_2" data-name="Capa 2"><g id="Capa_1-2" data-name="Capa 1"><path d="M44.46,23a13.92,13.92,0,0,1-2,4.83c-2.07,3-5.09,4.46-8.47,5.31-1.24.31-2.51.48-3.8.72,0,0,.05.11.09.14a6.58,6.58,0,0,1,1.93,4.55c.1,2.73.07,5.45.1,8.18,0,.78,0,1.55,0,2.32a1.44,1.44,0,0,0,1.46,1.53H14.34A1.67,1.67,0,0,0,16,48.69c0-1.81,0-3.62-.05-5.44,0-.12,0-.24,0-.38a3.49,3.49,0,0,0-.35,0,16.28,16.28,0,0,1-5.57,0,6.13,6.13,0,0,1-4.24-2.38,14.15,14.15,0,0,1-1.13-2.19,9,9,0,0,0-3.47-4.26,3.74,3.74,0,0,1-.83-.76c-.53-.66-.39-1,.46-1.13a4.53,4.53,0,0,1,2.7.56,7.71,7.71,0,0,1,3.21,3.09A6.52,6.52,0,0,0,9.8,38.68a8.09,8.09,0,0,0,5.77-.23.77.77,0,0,0,.57-.68,6.81,6.81,0,0,1,1.11-2.89c.24-.35.52-.66.81-1l-.25,0A24,24,0,0,1,10.91,32a12,12,0,0,1-6.55-7,21.79,21.79,0,0,1-1.16-8,11.49,11.49,0,0,1,2.44-7,2.35,2.35,0,0,0,.52-2.45A11,11,0,0,1,6.75.4.57.57,0,0,1,7.19.07,11.4,11.4,0,0,1,9.67.41a21.17,21.17,0,0,1,5.65,2.71,1.42,1.42,0,0,0,1.25.21,28.94,28.94,0,0,1,3.48-.69,31.16,31.16,0,0,1,11.85.72,1.31,1.31,0,0,0,.83-.15C34.37,2.38,36,1.47,37.65.69A5.8,5.8,0,0,1,40.93,0c.18,0,.44.16.49.31a11.29,11.29,0,0,1,.41,8,.69.69,0,0,0,.15.81,11.83,11.83,0,0,1,2.94,6.57A21.1,21.1,0,0,1,44.46,23Z" fill="#61548a"/></g></g></svg>