<svg xmlns="http://www.w3.org/2000/svg" viewBox="0 0 33.56 30"><title>toggle</title><g id="Capa_2" data-name="Capa 2"><g id="Capa_1-2" data-name="Capa 1"><path d="M16.85,0H30.49c2.15,0,3.05.9,3.05,3,0,3.54,0,7.09,0,10.63A16.73,16.73,0,0,1,.17,15C-.15,11.53.09,8,.07,4.54V2.84C.09,1,1,0,3,0Zm0,15.79c-.32-.3-.55-.5-.77-.72-2-2-4-3.92-6-5.87a2.28,2.28,0,0,0-3.41-.15,2.19,2.19,0,0,0,.16,3.33q4,4.08,8.11,8.11a2.32,2.32,0,0,0,3.57,0c2.67-2.65,5.32-5.32,8-8a5.14,5.14,0,0,0,.38-.42,2.28,2.28,0,0,0-1.1-3.64,2.39,2.39,0,0,0-2.46.8Z" fill="#61548a"/></g></g></svg>